<svg xmlns="http://www.w3.org/2000/svg" xmlns:xlink="http://www.w3.org/1999/xlink" version="1.1" x="0px" y="0px" viewBox="0 0 100 125" enable-background="new 0 0 100 100" xml:space="preserve"><path fill="#000000" d="M50,8.34c-18.625,0-33.778,15.153-33.778,33.779c0,12.987,7.249,24.611,18.919,30.338  c0.228,0.112,0.478,0.17,0.731,0.17h28.256c0.254,0,0.504-0.058,0.731-0.17c11.67-5.727,18.919-17.351,18.919-30.338  C83.778,23.493,68.625,8.34,50,8.34z M63.737,69.307h-6.13V52.23c0-0.917-0.743-1.66-1.66-1.66s-1.66,0.743-1.66,1.66v17.076H51.66  V52.23c0-0.917-0.743-1.66-1.66-1.66s-1.66,0.743-1.66,1.66v17.076h-2.627V52.23c0-0.917-0.743-1.66-1.66-1.66  s-1.66,0.743-1.66,1.66v17.076h-6.13c-10.323-5.222-16.721-15.604-16.721-27.188C19.542,25.324,33.205,11.66,50,11.66  s30.458,13.664,30.458,30.459C80.458,53.702,74.061,64.085,63.737,69.307z"/><path fill="#000000" d="M63.482,77.88H36.518c-0.917,0-1.66-0.743-1.66-1.66s0.743-1.66,1.66-1.66h26.965  c0.917,0,1.66,0.743,1.66,1.66S64.399,77.88,63.482,77.88z"/><path fill="#000000" d="M35.473,80.881C38.09,86.273,43.602,90,49.998,90c6.398,0,11.912-3.727,14.529-9.119H35.473z"/><path fill="#000000" d="M56.688,47.183c-2.5,0-3.755-1.66-4.672-2.873c-0.854-1.128-1.249-1.555-2.023-1.555  c-0.773,0-1.169,0.427-2.021,1.555c-0.916,1.213-2.17,2.873-4.669,2.873c-2.498,0-3.752-1.661-4.668-2.874  c-0.852-1.128-1.245-1.554-2.017-1.554c-0.917,0-1.66-0.743-1.66-1.66s0.743-1.66,1.66-1.66c2.498,0,3.751,1.661,4.667,2.874  c0.852,1.128,1.246,1.554,2.018,1.554c0.772,0,1.168-0.426,2.021-1.555c0.916-1.212,2.171-2.873,4.67-2.873  c2.5,0,3.755,1.66,4.672,2.873c0.854,1.128,1.249,1.555,2.023,1.555s1.17-0.427,2.023-1.555c0.917-1.213,2.172-2.873,4.672-2.873  c0.917,0,1.66,0.743,1.66,1.66s-0.743,1.66-1.66,1.66c-0.774,0-1.17,0.427-2.023,1.555C60.442,45.522,59.188,47.183,56.688,47.183z"/></svg>