<svg xmlns="http://www.w3.org/2000/svg" xmlns:xlink="http://www.w3.org/1999/xlink" version="1.1" x="0px" y="0px" viewBox="0 0 100 125" enable-background="new 0 0 100 100" xml:space="preserve"><path d="M77.113,10.411l-2.046,2.197l9.219,8.569H54.81c-6.681,0-12.116,5.435-12.116,12.116v22.559  c0,5.026-4.089,9.116-9.116,9.116H9.693v3h23.885c6.681,0,12.116-5.435,12.116-12.116V33.293c0-5.026,4.089-9.116,9.116-9.116  h29.481l-9.225,8.572l2.046,2.197l13.194-12.267L77.113,10.411z"/><path d="M38.662,25.739c-1.508-1.021-3.265-1.561-5.083-1.561H9.693v-3h23.886c2.419,0,4.759,0.718,6.765,2.078L38.662,25.739z"/><path d="M78.635,55.616l-1.811,1.943l7.97,7.408H54.811c-1.457,0-2.849-0.336-4.138-1L49.3,66.635  c1.693,0.872,3.599,1.333,5.511,1.333h29.988l-7.974,7.41l1.811,1.944L90.307,66.47L78.635,55.616z"/></svg>